<svg xmlns="http://www.w3.org/2000/svg" width="200" height="200" fill="none" viewBox="0 0 200 200">
  <mask id="a" fill="#fff">
    <path d="M200 100c0 55.228-44.772 100-100 100S0 155.228 0 100 44.772 0 100 0s100 44.772 100 100zm-176.941 0c0 42.494 34.447 76.942 76.941 76.942s76.942-34.448 76.942-76.942c0-42.494-34.448-76.942-76.942-76.942-42.494 0-76.942 34.448-76.942 76.942z"/>
  </mask>
  <path fill="#C4C4C4" stroke="#fff" stroke-opacity=".3" stroke-width="2" d="M200 100c0 55.228-44.772 100-100 100S0 155.228 0 100 44.772 0 100 0s100 44.772 100 100zm-176.941 0c0 42.494 34.447 76.942 76.941 76.942s76.942-34.448 76.942-76.942c0-42.494-34.448-76.942-76.942-76.942-42.494 0-76.942 34.448-76.942 76.942z" mask="url(#a)"/>
</svg>
